<svg width="24" height="24" viewBox="0 0 24 24" fill="none" xmlns="http://www.w3.org/2000/svg">
<path d="M16.477 3.004C16.644 3.019 16.717 3.223 16.597 3.342L8.277 11.662C8.18302 11.756 8.11572 11.8734 8.082 12.002L7.082 15.832C7.04899 15.9586 7.04966 16.0916 7.08393 16.2178C7.11821 16.344 7.18491 16.4591 7.2774 16.5516C7.36989 16.6441 7.48496 16.7108 7.6112 16.7451C7.73743 16.7793 7.87043 16.78 7.997 16.747L11.826 15.747C11.9547 15.713 12.072 15.6453 12.166 15.551L20.604 7.113C20.6304 7.0859 20.664 7.06693 20.7009 7.05833C20.7377 7.04974 20.7762 7.05188 20.8119 7.06451C20.8476 7.07713 20.8789 7.09971 20.9021 7.12957C20.9253 7.15943 20.9395 7.19532 20.943 7.233C21.2941 10.5826 21.2739 13.9608 20.883 17.306C20.66 19.211 19.129 20.706 17.231 20.919C13.7547 21.3044 10.2464 21.3044 6.77 20.919C4.871 20.706 3.34 19.211 3.117 17.306C2.70473 13.781 2.70473 10.22 3.117 6.695C3.34 4.789 4.871 3.294 6.77 3.082C9.99452 2.72466 13.2472 2.69852 16.477 3.004Z" fill="#4f4f4f"/>
<path d="M17.823 4.23701C17.8462 4.21372 17.8738 4.19525 17.9042 4.18265C17.9346 4.17005 17.9671 4.16356 18 4.16356C18.0329 4.16356 18.0654 4.17005 18.0958 4.18265C18.1262 4.19525 18.1538 4.21372 18.177 4.23701L19.591 5.65201C19.6377 5.69887 19.6639 5.76234 19.6639 5.82851C19.6639 5.89467 19.6377 5.95814 19.591 6.00501L11.298 14.3C11.2664 14.3313 11.2271 14.3537 11.184 14.365L9.27 14.865C9.22781 14.876 9.18348 14.8758 9.1414 14.8644C9.09932 14.8529 9.06096 14.8307 9.03013 14.7999C8.9993 14.769 8.97707 14.7307 8.96565 14.6886C8.95422 14.6465 8.954 14.6022 8.965 14.56L9.465 12.646C9.47613 12.6029 9.49857 12.5635 9.53 12.532L17.823 4.23701Z" fill="#4f4f4f"/>
</svg>
